<svg width="46" height="46" viewBox="0 0 46 46" fill="none" xmlns="http://www.w3.org/2000/svg">
<path d="M36.0698 8.93549C37.032 8.93549 37.812 8.15546 37.812 7.19324C37.812 6.23102 37.032 5.45099 36.0698 5.45099C35.1075 5.45099 34.3275 6.23102 34.3275 7.19324C34.3275 8.15546 35.1075 8.93549 36.0698 8.93549Z" stroke="white" stroke-miterlimit="10" stroke-linecap="round" stroke-linejoin="round"/>
<path d="M37.3635 29.8368C39.9104 29.8368 41.975 27.7721 41.975 25.2253C41.975 22.6784 39.9104 20.6138 37.3635 20.6138C34.8167 20.6138 32.752 22.6784 32.752 25.2253C32.752 27.7721 34.8167 29.8368 37.3635 29.8368Z" stroke="white" stroke-miterlimit="10" stroke-linecap="round" stroke-linejoin="round"/>
<path d="M16.5485 40.549C17.66 40.549 18.561 39.648 18.561 38.5365C18.561 37.425 17.66 36.524 16.5485 36.524C15.437 36.524 14.536 37.425 14.536 38.5365C14.536 39.648 15.437 40.549 16.5485 40.549Z" stroke="white" stroke-miterlimit="10" stroke-linecap="round" stroke-linejoin="round"/>
<path d="M8.63075 37.2945C10.8473 37.2945 12.6442 35.4976 12.6442 33.281C12.6442 31.0644 10.8473 29.2675 8.63075 29.2675C6.41415 29.2675 4.61725 31.0644 4.61725 33.281C4.61725 35.4976 6.41415 37.2945 8.63075 37.2945Z" stroke="white" stroke-miterlimit="10" stroke-linecap="round" stroke-linejoin="round"/>
<path d="M6.48603 11.8163C7.8452 11.8163 8.94703 10.7144 8.94703 9.35526C8.94703 7.99608 7.8452 6.89426 6.48603 6.89426C5.12685 6.89426 4.02502 7.99608 4.02502 9.35526C4.02502 10.7144 5.12685 11.8163 6.48603 11.8163Z" stroke="white" stroke-miterlimit="10" stroke-linecap="round" stroke-linejoin="round"/>
<path d="M38.663 20.1192C38.5135 19.4522 38.0995 18.8542 37.5188 18.492C37.076 18.2102 36.5815 18.1067 36.1733 18.1987C35.65 18.3195 35.351 18.653 35.0808 18.9462C34.8163 19.2337 34.6035 19.4752 34.1953 19.5385C33.4363 16.9855 31.8263 14.7717 29.6183 13.2537C29.7678 12.742 30.061 12.5752 30.3945 12.3797C30.6475 12.236 30.9063 12.0865 31.0673 11.7932C31.2628 11.4482 31.2858 11.017 31.1305 10.58C30.8948 9.90725 30.2968 9.338 29.4918 9.016C28.6638 8.6825 27.7783 8.6365 27.186 8.8895C26.8525 9.03325 26.6168 9.269 26.496 9.568C26.3178 10.0222 26.381 10.4937 26.4385 10.9422C26.4788 11.224 26.5133 11.4885 26.4845 11.73C25.369 11.385 24.2075 11.2067 23.023 11.2067C21.8903 11.2067 20.7748 11.3677 19.6995 11.6897C19.136 11.316 19.1935 11.0055 19.2683 10.58C19.32 10.2925 19.3775 9.9705 19.2165 9.6485C18.8083 8.82625 17.5433 8.36625 16.1403 9.01025C15.4675 9.32075 14.9558 9.82675 14.7488 10.4017C14.5993 10.8042 14.6108 11.224 14.7775 11.5805C14.996 12.0462 15.3755 12.305 15.7148 12.535C16.1058 12.7995 16.33 12.972 16.376 13.294C14.9385 14.2945 13.7368 15.617 12.88 17.1407C12.8628 17.135 12.8455 17.1292 12.8283 17.1235C12.374 16.9912 11.8048 17.0717 11.3103 17.3362C10.902 17.5547 10.3558 17.9917 10.0798 18.8485C9.87277 19.504 9.93027 20.171 10.2408 20.6827C10.488 21.0852 10.8733 21.3555 11.3045 21.4302C11.3505 21.436 11.3965 21.4417 11.4483 21.4475C11.3965 21.8845 11.3735 22.3445 11.3735 22.8562C11.3735 24.5812 11.7415 26.2372 12.466 27.784C12.144 27.9392 11.7933 27.9335 11.4195 27.9277C11.04 27.922 10.649 27.9162 10.304 28.106C9.90727 28.3245 9.60252 28.773 9.48752 29.302C9.33802 29.9862 9.50477 30.7107 9.96477 31.3317C10.4478 31.993 11.178 32.4645 11.8623 32.568C12.2763 32.6312 12.6443 32.5507 12.926 32.3437C13.3745 32.0102 13.5758 31.5042 13.7483 31.0615C13.8805 30.7337 13.9783 30.498 14.1105 30.3715C16.33 33.005 19.5615 34.5115 23.0173 34.5115C23.414 34.5115 23.8108 34.4942 24.2018 34.454C24.196 34.4942 24.1903 34.5287 24.1845 34.569C24.1443 34.8737 24.104 35.167 24.1788 35.4602C24.265 35.7995 24.5123 36.0812 24.8918 36.2767C25.2368 36.4492 25.6508 36.5412 26.0878 36.5412C26.5305 36.5412 27.002 36.455 27.4448 36.2767C28.1003 36.0122 28.6178 35.535 28.865 34.9542C29.049 34.523 29.0663 34.0687 28.911 33.6835C28.8133 33.4477 28.6695 33.2637 28.5085 33.1085C30.2508 32.1712 31.7285 30.8085 32.8038 29.1467C34.0113 27.2895 34.6495 25.139 34.661 22.9195C35.3108 22.6147 35.834 22.724 36.34 22.8275C36.6275 22.885 36.9035 22.9425 37.1795 22.9195C37.5993 22.8792 38.0075 22.632 38.295 22.241C38.7148 21.6832 38.8413 20.9127 38.663 20.1192Z" fill="#FF6496"/>
<path d="M23.9315 18.5265C23.6038 17.8768 23.6095 17.1753 24.0063 16.7153C24.5985 16.0253 25.8348 16.123 26.772 16.928C27.7093 17.733 27.991 18.9463 27.4045 19.6305C27.025 20.0733 26.3695 20.194 25.7083 20.0043" stroke="white" stroke-miterlimit="10" stroke-linecap="round" stroke-linejoin="round"/>
<path d="M20.6655 23.9717C21.7523 23.9717 22.6378 24.8515 22.6378 25.944C22.6378 27.0365 21.758 27.9162 20.6655 27.9162C19.5788 27.9162 18.6933 27.0365 18.6933 25.944C18.6933 25.5645 18.8025 25.208 18.9923 24.9032" stroke="white" stroke-miterlimit="10" stroke-linecap="round" stroke-linejoin="round"/>
<path d="M28.0658 23.782C28.9858 24.2478 29.9115 23.989 30.3945 24.5065C30.9638 25.116 30.9925 25.9843 30.2105 26.8468C29.4285 27.7093 28.3418 27.9048 27.6748 27.3988C26.8698 26.7893 27.1515 25.8348 27.1515 25.8348" stroke="white" stroke-miterlimit="10" stroke-linecap="round" stroke-linejoin="round"/>
<path d="M26.381 12.627C27.3355 11.799 26.4558 10.6088 26.818 9.68876C27.0998 8.97576 28.2958 8.90101 29.3653 9.33226C30.6475 9.84401 31.1363 10.9653 30.7683 11.6208C30.4175 12.2418 29.3078 12.0578 29.187 13.7483" stroke="white" stroke-miterlimit="10" stroke-linecap="round" stroke-linejoin="round"/>
<path d="M14.4153 21.4475C13.2365 20.3895 12.374 21.2635 11.362 21.0967C10.6088 20.9702 10.0568 20.0617 10.4075 18.9635C10.8273 17.6525 12.0463 17.2672 12.7305 17.4627C13.4148 17.6582 13.4493 18.8197 14.9845 18.3367" stroke="white" stroke-miterlimit="10" stroke-linecap="round" stroke-linejoin="round"/>
<path d="M26.7778 31.625C26.8353 32.8612 28.2383 32.89 28.612 33.8042C28.8995 34.5115 28.4108 35.5177 27.3355 35.9432C26.0533 36.455 24.7135 36.0985 24.5238 35.3682C24.3455 34.6782 25.0068 33.7927 24.0925 32.499" stroke="white" stroke-miterlimit="10" stroke-linecap="round" stroke-linejoin="round"/>
</svg>
