<svg xmlns="http://www.w3.org/2000/svg" xmlns:xlink="http://www.w3.org/1999/xlink" viewBox="0 0 508 55.39"><defs><style>.cls-1{fill:url(#linear-gradient);}</style><linearGradient id="linear-gradient" x1="0.5" y1="27.7" x2="507.5" y2="27.7" gradientUnits="userSpaceOnUse"><stop offset="0" stop-color="#121212"/><stop offset="0"/></linearGradient></defs><title>Asset 2</title><g id="Layer_2" data-name="Layer 2"><g id="Layer_3" data-name="Layer 3"><path class="cls-1" d="M254,54.89c-67.83,0-131.59-2.88-179.55-8.11C7.71,39.51.5,31,.5,27.7s7.21-11.81,74-19.09C122.41,3.38,186.17.5,254,.5S385.59,3.38,433.55,8.61c66.74,7.28,73.95,15.77,73.95,19.09s-7.21,11.81-73.95,19.08C385.59,52,321.83,54.89,254,54.89Z"/><path d="M254,1c67.81,0,131.56,2.88,179.5,8.11C501.7,16.54,507,25.22,507,27.7s-5.3,11.15-73.5,18.59c-47.94,5.22-111.69,8.1-179.5,8.1s-131.56-2.88-179.5-8.1C6.3,38.85,1,30.18,1,27.7S6.3,16.54,74.5,9.11C122.44,3.88,186.19,1,254,1m0-1C113.72,0,0,12.4,0,27.7S113.72,55.39,254,55.39,508,43,508,27.7,394.28,0,254,0Z"/></g></g></svg>