<svg xmlns="http://www.w3.org/2000/svg" xmlns:xlink="http://www.w3.org/1999/xlink" viewBox="0 0 158.22 222.74"><defs><style>.cls-1{fill:#fe9458;}.cls-2{fill:#fff099;}.cls-3{clip-path:url(#clip-path);}.cls-4{fill:#d8602b;}.cls-5{clip-path:url(#clip-path-2);}.cls-6{fill:#e2cf6f;}</style><clipPath id="clip-path" transform="translate(55.69)"><path class="cls-1" d="M1,17.53C40.06,7.77,43.16,45.05,43.16,45.05c5.24,21-13,31.12-21.74,34.72a23.54,23.54,0,0,0-9.63,7.38C-6,110.08.16,139,5.65,154.64A42.39,42.39,0,0,0,18,172.79c29.36,25.19,35.21,17.8,35.21,17.8-7-28.15-6.48-43.37-4.64-51.3a14.55,14.55,0,0,1,8-9.88c61.23-28.69,43.5-91.69,43.5-91.69C79-33.1,1,17.53,1,17.53Z"/></clipPath><clipPath id="clip-path-2" transform="translate(55.69)"><path class="cls-2" d="M13.81,170.32a21.07,21.07,0,0,1,8.1-20.65,28.21,28.21,0,0,0,2.88,16C27.67,150.46,35,144.18,35,144.18c-5,6.8-.79,19.1-.79,19.1,5.9-15.24,11.24-14.51,11.24-14.51l12.84,30.74-4.72,30.1L13.81,170.32"/></clipPath></defs><title>Asset 1</title><g id="Layer_2" data-name="Layer 2"><g id="Layer_3" data-name="Layer 3"><path class="cls-1" d="M1,17.53C40.06,7.77,43.16,45.05,43.16,45.05c5.24,21-13,31.12-21.74,34.72a23.54,23.54,0,0,0-9.63,7.38C-6,110.08.16,139,5.65,154.64A42.39,42.39,0,0,0,18,172.79c29.36,25.19,35.21,17.8,35.21,17.8-7-28.15-6.48-43.37-4.64-51.3a14.55,14.55,0,0,1,8-9.88c61.23-28.69,43.5-91.69,43.5-91.69C79-33.1,1,17.53,1,17.53Z" transform="translate(55.69)"/><g class="cls-3"><path class="cls-4" d="M1.3,17.55c56.51-13.09,53.36,32,53.36,32C58.78,78.43,24.34,89.1,24.34,89.1c-31.28,6.79-7,66.7-7,66.7,14.55,37.59,40,36.38,40,36.38l-81,30.56-32-152.8,57-52.39" transform="translate(55.69)"/><path class="cls-2" d="M13.81,170.32a21.07,21.07,0,0,1,8.1-20.65,28.21,28.21,0,0,0,2.88,16C27.67,150.46,35,144.18,35,144.18c-5,6.8-.79,19.1-.79,19.1,5.9-15.24,11.24-14.51,11.24-14.51l12.84,30.74-4.72,30.1L13.81,170.32" transform="translate(55.69)"/><g class="cls-5"><path class="cls-6" d="M17,154.91c9.8,26.35,36.24,37.27,36.24,37.27L39.38,202.85,2.76,163.56,17,154.91" transform="translate(55.69)"/></g></g></g></g></svg>