<svg xmlns="http://www.w3.org/2000/svg" xmlns:xlink="http://www.w3.org/1999/xlink" viewBox="0 0 540 578.92"><defs><style>.cls-1{fill:#ff6496;}.cls-2{fill:#f73179;}.cls-3{fill:url(#linear-gradient);}.cls-4{fill:url(#linear-gradient-2);}.cls-5{fill:none;stroke-linecap:round;stroke-linejoin:round;stroke-width:4px;stroke:url(#linear-gradient-3);}</style><linearGradient id="linear-gradient" x1="177.09" y1="200.5" x2="203.09" y2="200.5" gradientUnits="userSpaceOnUse"><stop offset="0" stop-color="#121212"/><stop offset="0"/></linearGradient><linearGradient id="linear-gradient-2" x1="280.09" y1="200.5" x2="306.09" y2="200.5" xlink:href="#linear-gradient"/><linearGradient id="linear-gradient-3" x1="295.14" y1="223.72" x2="321.14" y2="223.72" gradientTransform="translate(-33.16 83.69) rotate(-2.81)" xlink:href="#linear-gradient"/></defs><title>Asset 4</title><g id="Layer_2" data-name="Layer 2"><g id="Layer_3" data-name="Layer 3"><rect class="cls-1" x="259.56" y="26.58" width="22.78" height="54.42"/><rect class="cls-1" x="221.59" width="98.72" height="43.03" rx="17"/><rect class="cls-2" x="302.59" y="446" width="23.12" height="132.92"/><rect class="cls-2" x="302.59" y="553.33" width="71" height="25.59" rx="12.8"/><rect class="cls-2" x="100.27" y="504.91" width="71" height="26.09" rx="12.8"/><rect class="cls-1" x="474.82" y="216.96" width="22.78" height="54.42" transform="translate(730.38 -242.04) rotate(90)"/><rect class="cls-1" x="469.12" y="222.65" width="98.72" height="43.03" rx="17" transform="translate(762.65 -274.32) rotate(90)"/><path class="cls-1" d="M462.19,266.25c0,106-86,192-192,192A194.05,194.05,0,0,1,248.37,457C152.6,446.19,78.19,364.91,78.19,266.25c0-106,86-192,192-192S462.19,160.21,462.19,266.25Z"/><path class="cls-2" d="M329.87,446.74c-95,16.37-189.14-40.87-216.72-135.59-28.24-97,23.49-198.25,116.43-233.28-4.47,1-8.94,2.09-13.4,3.39C114.37,110.9,55.87,217.47,85.51,319.28c27.59,94.72,121.76,152,216.73,135.59a193.61,193.61,0,0,0,21.29-4.93q7.31-2.12,14.29-4.77C335.17,445.75,332.52,446.28,329.87,446.74Z"/><rect class="cls-2" x="42.4" y="223.96" width="22.78" height="54.42" transform="translate(-197.38 304.96) rotate(-90)"/><rect class="cls-2" x="-27.84" y="229.65" width="98.72" height="43.03" rx="17" transform="translate(-229.65 272.68) rotate(-90)"/><rect class="cls-2" x="102.04" y="114.78" width="14.07" height="33.6" transform="translate(-61.1 115.67) rotate(-45)"/><rect class="cls-2" x="64.51" y="104.21" width="60.95" height="26.57" rx="9.18" transform="translate(-55.26 101.58) rotate(-45)"/><rect class="cls-1" x="420.58" y="114.22" width="14.07" height="33.6" transform="translate(217.89 -263.99) rotate(45)"/><rect class="cls-1" x="411.23" y="103.65" width="60.95" height="26.57" rx="9.18" transform="translate(212.06 -278.08) rotate(45)"/><rect class="cls-2" x="120.32" y="401.84" width="14.07" height="33.6" transform="translate(-78.62 804.71) rotate(-135)"/><rect class="cls-2" x="82.78" y="419.44" width="60.95" height="26.57" rx="9.18" transform="translate(-112.64 818.8) rotate(-135)"/><rect class="cls-1" x="402.71" y="404.17" width="14.07" height="33.6" transform="translate(997.15 428.9) rotate(135)"/><rect class="cls-1" x="393.36" y="421.77" width="60.95" height="26.57" rx="9.18" transform="translate(1031.16 442.99) rotate(135)"/><circle class="cls-2" cx="198.59" cy="131" r="20"/><circle class="cls-2" cx="151.09" cy="326.5" r="11.5"/><circle class="cls-2" cx="144.09" cy="217.5" r="16.5"/><circle class="cls-2" cx="321.09" cy="150.5" r="11.5"/><circle class="cls-2" cx="234.59" cy="403" r="16"/><ellipse class="cls-3" cx="190.09" cy="200.5" rx="13" ry="19"/><path d="M190.09,182c6.89,0,12.5,8.3,12.5,18.5S197,219,190.09,219s-12.5-8.3-12.5-18.5,5.61-18.5,12.5-18.5m0-1c-7.46,0-13.5,8.73-13.5,19.5s6,19.5,13.5,19.5,13.5-8.73,13.5-19.5-6-19.5-13.5-19.5Z"/><ellipse class="cls-4" cx="293.09" cy="200.5" rx="13" ry="19"/><path d="M293.09,182c6.89,0,12.5,8.3,12.5,18.5S300,219,293.09,219s-12.5-8.3-12.5-18.5,5.61-18.5,12.5-18.5m0-1c-7.46,0-13.5,8.73-13.5,19.5s6,19.5,13.5,19.5,13.5-8.73,13.5-19.5-6-19.5-13.5-19.5Z"/><path class="cls-2" d="M221.59,432.82c-77,25.18-70,98.18-70,98.18h19c3-67,64-77.64,64-77.64Z"/><path class="cls-2" d="M421.58,289c-4.72,15.91-23.11,14.32-23.11,14.32-9.6,8.77-1.59,20.66,5.3,28a22.53,22.53,0,0,0,19.16,7.06c20.71-2.67,26.69-23.29,26.69-23.29Z"/><path class="cls-5" d="M274.7,294.54c19.17,3.06,21.73-6.08,21.73-6.08"/></g></g></svg>