<svg id="Layer_1" data-name="Layer 1" xmlns="http://www.w3.org/2000/svg" viewBox="0 0 497.75 307.28"><defs><style>.cls-1{fill:none;stroke:#fff;stroke-miterlimit:10;}.cls-2{fill:#b60b0b;}</style></defs><title>elephant</title><path id="path3285" class="cls-1" d="M815.39,458.21l-11.81-11.3a208.49,208.49,0,0,0-21.36-17.72c-5.21-3.54-10.31-8.73-11.31-11.5s-5.25-8.19-9.49-12.06-11.45-10.86-16-15.52c-10.14-10.34-15.86-12.63-31.16-12.63-8.62,0-12.29.87-13.57,3.14-1.58,2.83-3.06,2.84-15.64-.12-7.66-1.8-16.36-4.58-19.29-6.16s-6.73-2.89-8.42-2.89c-68-17.61-101.75-16.3-180.94-.06h0c-10.17,3.35-25.85,16.1-33.61,27.39a268.66,268.66,0,0,1-18.16,22.3c-7.52,8.31-13.18,16.9-16,24.32-6.29,16.79-17.35,59.41-21,81.11-1.77,10.36-5,24-7.1,30.34-4,11.87-3.6,21.82,1.07,25.7s7.12-2.9,8-20.36c1.53-31.27,21.3-98.6,33.8-115.16,2.6-3.45,2.86-1.49,2.45,18.09-.26,12.08-1.12,28.72-1.89,37-1,10.71-.55,18.19,1.51,25.82,2.41,8.93,2.43,11.64.25,16.08-1.62,3.3-3,16.9-3.71,35.5-.59,16.59-2.06,36-3.26,43.16s-1.6,14.75-1,17.47c2,12.2,43.05,16.83,48.13,2.83l-.07-.13c-2.69-6.06-1.21-59.52,1.57-56.73,1,1,1.57,15.29,1.26,31.79-.28,15.15-.6,22.67-1.26,25.19,14.23,2.61,27.08,9.31,44.42,2.58a46,46,0,0,1-.5-7.67c0-6-.71-11.47-1.57-12s-.94-9.35-.19-19.66c1-14,2.76-21.84,6.85-30.85s5.71-16.28,6.34-28.15c.48-8.84,1.25-18.08,1.76-20.54l.95-4.46,11.74,6c6.48,3.29,13.13,6,14.71,6a8.34,8.34,0,0,1,5,2.19c2.45,2.45,37.23,2.79,67.16.7l19.23-1.32,2.51,6.09a32.11,32.11,0,0,0,6.66,9.8c2.24,2,7.13,8.44,10.87,14.26,5.46,8.52,6.8,12.66,6.85,21.11,0,5.79,1.45,20,3.14,31.6s3.57,17.37,4.21,22.62l.75,6.1c-.12,4-2.09,9.65.9,12.54,6.09,5.92,20.82,6.6,29.9,2,7.71-3.5,10.51-5.27,17.09-4.52,5.08-.22,11-3.45,10.73-4-1.91-2.61-2.67-9.38-3.58-16.6-.77-6.08-3.61-9.35-6.35-17.09-13.54-38.32-17.09-57.83-15.27-83.43,1.17-16.37,1.43-17.26,7.42-21.11,4.87-3.14,7.28-7.14,10.8-18.1,2.49-7.73,6.4-15.65,8.74-17.59,8.11-6.72,21.85-3.8,37.5,7.92,7,5.23,10.74,4.86,9.24-.88-.8-3.07.4-3.43,9.17-2.83,11.35.78,12.28,1.62,17.22,14.83,4.16,11.13,2.91,24.94-2.89,32.1-5.54,6.84-18.44,6.05-26.52-1.63-7.82-7.44-12.05-15.64-10.36-20,1-2.65.6-3.06-1.57-1.7a17.64,17.64,0,0,1-5.53,2.2c-4.4.67-4.72,1.93-2.51,10.11,3.67,13.64,20.48,26.77,34.24,26.77,27.86,0,42.91-33.42,29.71-66.09l-4.77-11.82S822.5,465.5,815.39,458.21Z" transform="translate(-377.25 -358.22)"/><path class="cls-2" d="M738,479.22c45.66,12.63,133.29-32.58,133.29-32.58,9.48-4.74-2.36,8.29-2.36,8.29-65.17,39.1-96,41.47-96,41.47A101.33,101.33,0,0,1,799.05,500c21.33,2.37-10.66,1.19-20.14,1.19s-33.18,1.18-40.28,3.55S725,510,725,510C730.74,502.05,738,479.22,738,479.22Z" transform="translate(-377.25 -358.22)"/></svg>