<svg id="Layer_1" data-name="Layer 1" xmlns="http://www.w3.org/2000/svg" viewBox="0 0 567.16 253.12"><defs><style>.cls-1{fill:none;stroke:#fff;stroke-miterlimit:10;}.cls-2{fill:#b60b0b;}</style></defs><title>rhino</title><path class="cls-1" d="M865.5,547.5c-24-7-4.85-41.41-4.85-41.41s-2.34-4.67,1.17-8.18a9.35,9.35,0,0,0,2.34-7s-1.17-2.34-6.43-2.92-14.62,2.92-14.62,2.92-8.77-8.77-12.28-15.21-4.68-13.45-5.85-17.54-1.76-14-3.51-18.71-1.75-6.44-1.75-8.19c0-1.17,7-.59,9.94-1.17s9.35-12.28,12.28-19.89,0-9.35,0-9.35c-1.76,0-14.62,7-22.22,10.52-4.68,2.34-10,5.27-12.87,7-.59-4.68-3.51-11.69-8.77-13.45-3.51-1.17-10-4.09-15.21-6.43a33.26,33.26,0,0,0-2.34-4.1c-2.34-3.5-7.6-5.84-11.11-7s-4.68-3.51-7-4.68-5.26-.59-7-.59a39.85,39.85,0,0,1-7.61-1.17c-2.34-.58-6.43,3.51-11.69,5.27s-17,1.75-22.81,1.17-19.3-1.76-26.9-1.17-15.21,4.09-28.07,8.18-34.51,2.34-47.37,1.76c-12.29-1.17-59.07-10.53-64.33-11.7s-9.36-.58-21.64,2.34-39.19,5.85-54.39,6.44c-14.62.58-22.22,5.26-35.09,14.62,0,0-12.28,12.28-14,14.62-1.16,2.92-9.94,9.94-15.2,15.2-4.68,5.26-9.94,22.22-10.53,28.07s-2.34,35.09-3.51,41.52-1.17,19.3,0,25.15,5.27,4.1,5.27-.58c0-4.1-1.76-11.11-1.76-12.87s2.34-11.7,2.34-13.45c0-2.34,1.17-9.36,2.34-6.43h0c0,1.17,0,7.6,1.76,11.11,2.33,4.68,9.94,21.05,9.35,24.56-.58,2.92,1.17,11.7-2.34,18.13s-5.26,14-5.84,14.62-2.93,2.34-2.93,7.6c0,4.68,2.34,7,5.85,11.7s7.6,11.11,8.19,14c0,3.5,0,15.2-2.34,18.71s-5.27,12.28-.59,13.45h40.94c5.85,0,1.75-7-.58-12.28-1.17-1.76-7.61-4.68-8.78-5.26-1.17,0-5.26-23.4-4.68-25.74a163.51,163.51,0,0,1,4.68-15.79c.59-1.17,1.17-5.26,2.34-9.35,0,.58.59,1.17.59,1.75,1.17,3.51,1.17,10.53,1.17,16.38s4.68,9.35,8.18,11.11c4.1,1.75,11.7,15.79,15.21,21,4.09,5.26-.59,7.6-2.92,11.7s1.16,6.43,6.43,6.43h42.69c0-2.92-5.85-12.28-7-13.45-.58-1.17-6.43-1.76-7.6-2.92s-9.36-17.55-11.7-22.23a25.8,25.8,0,0,1-2.92-10.52c-.59-2.34-2.93-10.53-4.68-15.21s-2.92-17.54-2.92-21c0-2.93,2.92-8.19,6.43-10.53,2.92-2.92,4.09-9.94,5.26-15.21l2.34,1.17s20.47,22.81,21.64,24,33.33,14.62,47.37,16.38c14,1.17,33.33.58,51.46-1.76S649.53,557,649.53,557c.59,1.17,3.51,9.36,2.34,12.28s-4.68,10-4.68,12.29-1.75,17,0,21.63,1.17,7.61-.58,11.7c-2.34,4.09-5.85,14.62-5.26,17l56.14.59,26.32.58c0-4.68-6.44-12.87-11.12-14-2.92-.58-2.34-11.11-4.67-13.45-2.34-2.92-2.34-7.6-2.34-10.52s2.92-13.45,4.09-18.72c.58-5.26,2.34-6.43,5.26-11.11s7.61-15.79,8.19-19.3,1.75-4.68,3.51-5.26,5.85-2.93,7.6-2.93,7.6.59,9.36-.58c1.75-.58,2.34-4.68,4.68-5.85a26.49,26.49,0,0,1,6.43-1.75s5.26,4.68,7,4.68c2.34,0,4.68-1.76,5.85-3.51a96,96,0,0,0,4.09-8.78l1.75,5.27c1.76,5.26,8.19,12.86,10.53,14s21.05,16.38,25.15,19.89c4.68,3.51,8.19,8.18,10.53,9.35s3.5,0,3.5,0,6.44,4.68,9.95,5.27c4.09.58,6.43-.59,12.86-2.34,6.43-1.17,11.11-6.43,13.45-9.36s5.85-13.45,6.44-16.37m-186.56,42.1s1.17,12.28,2.92,14c1.17,2.34,1.76,2.92,1.76,4.68,0,1.17-4.1,5.85-6.44,9.35h-1.75c-1.75,0-4.68-9.35-4.68-12.28S678.19,590.89,679.36,589.72Zm31-32.75Z" transform="translate(-390.84 -380.39)"/><path class="cls-2" d="M862,509c-12,30,3,36,3,36,54-1,93-72,93-72C916,501,862,509,862,509Z" transform="translate(-390.84 -380.39)"/></svg>