<svg id="Layer_1" data-name="Layer 1" xmlns="http://www.w3.org/2000/svg" viewBox="0 0 682.4 222.4"><defs><style>.cls-1{fill:none;stroke:#fff;stroke-miterlimit:10;}.cls-2{fill:#b60b0b;}</style></defs><title>pangolin</title><path class="cls-1" d="M896.84,512.15c-1.76-4.25-4.52-21.08-19.49-34-35.79-30.85-23.18-23.88-42.11-45-24.09-26.8-58.08-46.42-79-51.71s-56.31-14.19-118.6,9.25-127.56,77.91-152.68,91a291.2,291.2,0,0,1-35.06,13.12c-18.07,5.29-75.42,14.54-88.54,15.23s-59.15,14.54-73.3,18.41-31.88,17.34-43.54,24-16.69,15.23-16.69,15.23,9.25,1.42,16.3,0S276,554.31,276,554.31s-2.45,4.61,6,2.11c4.77-1.37,18.06-6.37,18.06-6.37s-3.52,4.26,3.53,3.53c2.8-.3,21.25-4.6,21.25-4.6s-2.45,3.53,5.29,3.87c4.35.17,17.34-2.45,17.34-2.45s.69,4.26,4.26,4.6,21.94-5.29,21.94-5.29-6.37,5.64,6.71,5.64c6.15,0,19.83-5.64,19.83-5.64s-.68,5.64,8.13,4.26,18.07-6.71,18.07-6.71-5.29,7.4,12.78,2.11c12.95-3.83,17-5.64,17-5.64s-1.07,7.06,18.07-.69c10.37-4.21,10.58-4.94,10.58-4.94s1.42,7.82,16.65,0a124.6,124.6,0,0,0,14.2-8.82l-.69,3.87s5,1.42,14.54-6,11.7-9.25,11.7-9.25l2.84,6.71s6.2,1.59,19.32-11.4c3.74-3.7,14-10.54,14-9.51s-.34,11,1.76,12.05,11.7-3.53,11.7-3.53l4.26,3.18s-1.76,4.26-3.18,7.83-2.84,21.6-4.26,37.9,12,26.89,29.77,32.61c9.77,3.14,17.72,1.2,22.59-1.94h.47c3.35,0,10.93-1.07,9.42,4.22,2.62-1.89.17-5.38-2.11-5.85-1.46-.34-3.09-.52-4.6-.9,0,0,.3-.31.21-.31a4.75,4.75,0,0,0,1-1.59h.69a32.63,32.63,0,0,1,3.53.91,11.13,11.13,0,0,1,2.62.68,2.42,2.42,0,0,1-1,.87c.65,0,1.77.21,2.28-.18.91-.73-1.54-3.27-2.28-3.35a3.45,3.45,0,0,0,1.73-.91c1.24-1.07-1-2.1-2.11-2.62a17.09,17.09,0,0,0-6.63-1l-.38-.39a36.64,36.64,0,0,0,4-1.25c-1.21-.64-3.49-.17-4.78,0a2,2,0,0,0-.64.13c-4.18-3.18-10.33-6-10.85-9.12-.68-4.26,5.3-11.36,8.48-20.17a113.81,113.81,0,0,0,4.6-17s10.28,16,15.58,21.25,19.78,14.2,28.26,17c6.19,2.06,21,1.42,27.15-4.22.68,1.38.9,2.93,1.59,4.39a19.62,19.62,0,0,0-.65-5.38c1.42-1.42,2.8-2.92,4.05-4.43.17.18.34.39.51.56a7.48,7.48,0,0,1,2.07,5c0,1.76,1.07,3-.65,5.63,2.58-1.55,2.84-8.73,2.07-11.27a9.49,9.49,0,0,0-1.64-3c.47-.69.86-1.38,1.21-2,3.35,1.64,5.42,4.73,5.42,9.94.47-3.74,1.24-6.67-1.16-10.15a11.69,11.69,0,0,0-3-3,6.38,6.38,0,0,0,.21-2.79c4.35.51,8.13,5.07,8.22,10.11.69-1.16.56-5.47.3-7.06a8.15,8.15,0,0,0-3.57-4.86,8.66,8.66,0,0,0-6.71-1.29,7.6,7.6,0,0,0-3.53-1.59c-5.29-1.08-14.2-3.53-17.34-6s-15.23-26.25-15.23-26.25l13.47-4.94s7.83,1.42,13.81,0a23.62,23.62,0,0,0,9.59-4.61,52.87,52.87,0,0,0,9.6-2.45c6.36-2.11,10.28-7.83,10.28-7.83l2.84,2.11c2.84,2.11,7.4-1.42,7.4-1.42l3.18,6.37a37,37,0,0,0,1.08,10.58c1.41,5.29,10.58,5.64,10.58,5.64s-.35,9.93.34,14.19,8.48,4.95,10.59,7.4,6.36,3.18,11.7,6.71,26.2,11.36,31.53,14.89,5,9.93,12.39,18.41a14.54,14.54,0,0,0,12.39,4.73c.13,0,.21,0,.34,0,1.42.22,2.8.39,4.26.52a48.18,48.18,0,0,0,9,.13,29.12,29.12,0,0,0,9.17-2.5,12.67,12.67,0,0,0,3.74-2.79c.9-.82,1.59-2,2.49-2.8,1.3-1.16,2.46.52,3,1.77.69,1.54.22,3.18,0,4.73,1.63-.52,1.42-3.66,1.2-5-.3-1.89-.9-3.7-3-4.09,2.67-2.62,7.7,2.41,5.81,5.08,1.93-2.58-.86-5.59-2.24-7.53a16.12,16.12,0,0,0-6.8-5c-2.75-1-5.37,1.6-7.57,2.93-2.58,1.42-4.69,1.08-7.66,1.59a1.91,1.91,0,0,0-.51.13c-.69-3.74-1.72-6.84-2.5-9.68-1.42-5.29-11.35-26.54-17-37.9s-1.08-9.59,5.64-8.13,13.8,10.24,18.06,13.47,11,2.1,16.65,3.52,9.6,5.29,12.39,8.82,3.19,6.33,6,8.09,8.31,3.1,10.29-1.38C911.6,541.15,898.6,516.41,896.84,512.15Z" transform="translate(-227.04 -374.85)"/><path class="cls-2" d="M538,516.5c15.43-5,37.74-13.28,37.74-13.28C557.84,527.5,538.55,529,538.55,529Z" transform="translate(-227.04 -374.85)"/><path class="cls-2" d="M513.56,527.92C512.47,534.42,507,542,507,542c21.88-1.08,35-26,35-26Z" transform="translate(-227.04 -374.85)"/><path class="cls-2" d="M480.62,536.77C483,549.26,477,553.94,477,553.94c14.49,1.56,40.73-27.66,40.73-27.66A122.07,122.07,0,0,1,480.62,536.77Z" transform="translate(-227.04 -374.85)"/><path class="cls-2" d="M456,544c-12,20,28.88-5.9,28.88-5.9C468,541,456,544,456,544Z" transform="translate(-227.04 -374.85)"/></svg>