<svg id="Layer_1" data-name="Layer 1" xmlns="http://www.w3.org/2000/svg" viewBox="0 0 534.23 724.39"><defs><style>.cls-1{fill:#b60b0b;}.cls-2{fill:none;stroke:#fff;stroke-miterlimit:10;}</style></defs><title>tiger</title><path class="cls-1" d="M766.6,630.77c-.76,1.92-1.19,4.06-2.33,5.72-7.19,10.5-11,22.34-13.25,34.64a70.23,70.23,0,0,0-.81,18.26A17.37,17.37,0,0,0,762.38,705c6.22,2.17,10.79-1.94,14.27-6,7.05-8.15,13.66-16.73,19.9-25.51,7.7-10.83,14.06-22.69,22.42-32.94,9.11-11.18,10.06-24,11.16-37.21a2.12,2.12,0,0,0,0-.5c-1-7.37-5-10.29-12.18-9a22.56,22.56,0,0,1-3,.18c3.12-.65,6.47-2.36,9.31-1.75A133.93,133.93,0,0,1,846.57,599c8.6,3.52,16.77,8.1,25.14,12.19,1.24.61,2.53,1.08,3.2,1.36.67-11.28,1.33-22.29,2-34.09-15.56-4.06-32.12-7.53-49.18-3.76-19.48,4.31-38.85,9.11-58.28,13.67-3.89.91-7.78,1.8-11.71,2.52-11.75,2.14-21.85-.57-30.61-9.19-9.43-9.28-20-17.32-33.06-20.77-6.61-1.74-12.05-5.53-18.06-8.29a23.64,23.64,0,0,1-12.39-13.78c-2.55-7-2.06-13.61,3.39-19,5.26-5.18,11.7-8.27,19.29-7.93,26.55,1.17,50.71,9.7,73.46,23.22q23.58,14,48.12,26.41c13.88,7,43.25,5.68,58.08-1.91-28.64,0-52.55-11-75.62-25.66-19.06-12.1-39-23-59.1-33.25-16.87-8.6-35.15-13.62-54.31-13.32a118.14,118.14,0,0,0-65.66,21A324.72,324.72,0,0,0,545.72,568c-15.89,18.76-35.87,31.61-60.2,37a13.78,13.78,0,0,0-2,.78l.32,1.64c6.73-1,13.75-1.14,20.14-3.22,20.28-6.59,37.61-17.47,51.41-34.4,19-23.29,43.15-39.82,71.48-50.26,5-1.84,7.93-.46,10.67,3.16,6.37,8.39,6.93,18,6.14,28-.43,5.37-3.06,7.79-8,8.2-7.45.62-13.68,4-19.42,8.42-9.49,7.34-18.71,15-28.4,22.08a119.5,119.5,0,0,1-19.52,11.87c-11.93,5.56-24,2.29-35.44-2-6.15-2.27-10.58-1.07-14.79,3.28-1.62,1.68-3.36,3.26-4.82,5.06-6.17,7.59-6.86,16.35-6,24.3,7.06-2.18,13.7-4.47,20.49-6.22,3.17-.82,6.67-.27,9.93-.85,21.59-3.8,41.06-11.4,56.26-28.42,8.6-9.61,18.57-18.08,28.49-26.38,7.73-6.47,9.5-5.95,15.22,2.57,1.77,2.62,3.52,6.87,2.6,9.39-2.8,7.63-8.26,13.29-16.75,14.89-4.57.87-9.24,1.24-13.83,2-8.13,1.4-14.32,5.77-19.86,12.9,16.39-2,30.61,1.45,43.87,8.77,9.83,5.42,16.25,13.75,17.74,25.13.31,2.34-.47,5.94-2.08,7.07-1.45,1-4.86-.15-7.15-1-2.12-.81-3.92-2.48-5.82-3.84-9-6.42-18.32-12.14-29.13-15-24.77-6.53-48.49-2.13-71.73,7-.09,0,0,.49,0,.6,5.51,0,11-.13,16.48,0,19.63.53,38.92,2.71,56.33,12.85,15,8.74,26.12,21.49,36,35.49a121.54,121.54,0,0,0,8.73,10.88c1.23,1.36,3.21,2,4.84,3-2.89-6.55-5-12.39-.45-19.09,6.41,7.93,12.1,15.91,20.79,21.43.62-2,1.1-3.44,1.47-4.87A134,134,0,0,1,701.7,654.3c5.34-7.29,12.06-12.48,20.84-14.52,8.25-1.91,16.67-3.1,24.94-4.95C753.84,633.41,761,635.56,766.6,630.77ZM500.73,351.36c.81.52,1.06.82,1.31.82,1.33,0,2.66,0,4-.07,20.49-1.1,40.17-6.17,59.12-13.55,25.1-9.78,49.7-20.84,74.73-30.81,9.36-3.74,19.15-7.09,29-8.63,14.06-2.17,27.86,1.4,41.06,6.29,22,8.14,43.68,17.08,65.72,25.07,14.38,5.21,29.09,9.77,44.7,9.32,3.25-.09,6.46-1.32,9.68-2l0-1.71c-17.91-10.61-37.25-18.12-56.74-25.24s-39.17-14.64-60.09-18.14c3.13-10.39,6-20.48,17-25.4,2.3-1,4.27-3.26,5.86-5.34,8.45-11,15.51-22.85,20.12-36,.43-1.24.58-2.58,1.13-5.13-2.41,2.16-3.77,3.36-5.11,4.57-16.34,14.77-33.18,29-52.57,39.6-9.26,5.07-19.38,8.6-29.22,12.58-4,1.63-7,.81-9.88-3.49-8.14-12.24-19.11-20.87-34.36-22.41-13.18-1.33-23.07-8-30.73-18.36-2.22-3-4.16-6.23-6.28-9.43-4.43,2.79-6.41,6.77-5.91,11.21a52.73,52.73,0,0,0,3.66,14.85c5,11.69,13.52,20.89,22.93,29.26,5.44,4.83,6.16,8.67,1,13.93A97.87,97.87,0,0,1,594,307c-22.9,14.74-47.84,25.47-72.85,36C514.49,345.81,507.78,348.48,500.73,351.36Zm-30.12,56.58c7,4,12.93,7.88,19.28,11,19.41,9.58,39.34,11.93,59.71,3q15.06-6.62,30-13.59c22-10.26,43.85-20.87,66-30.84,18.83-8.49,38.13-9.38,57.84-2.39a431.88,431.88,0,0,0,108.55,23.32c19.62,1.64,39.28,2.26,58.59-2.62,5.63-1.43,11-4.09,16.43-6.18l-.57-2.08c-11,4.6-22.36,4.2-33.85,3.86-37.11-1.1-73.1-6.57-107.13-22.7a240.47,240.47,0,0,0-58.13-19.22c-20.7-3.93-39.74-1.47-56.52,12.21-2.58,2.1-5.46,3.82-8.12,5.82-28.59,21.48-61,33-96.34,36.56C508.28,405.87,490.15,406.62,470.61,407.94Zm415.79,14.2c-9,.85-18.09,2.51-27.1,2.38-13.63-.19-27.26-1.43-40.86-2.58-20.73-1.74-40.6-6.57-59.3-16.21-12.26-6.32-24.89-12-37.68-17.17-18.39-7.45-37.4-10.8-57.09-5.27a149.54,149.54,0,0,0-45.45,21.29c-13.11,9.14-26.22,18.25-41.51,23.65-24.51,8.67-50,10.54-75.69,11.43-9.91.35-19.84.06-29.76.06l-.57,1.68c6.39,3.65,12.59,7.68,19.19,10.88,19.15,9.28,38.78,11.5,58.8,2.72,10-4.41,20-8.95,30-13.54,23.55-10.86,46.9-22.16,70.66-32.55,16.63-7.27,33.85-7.27,51.18-1.39,23.66,8,47.65,14.83,72.36,18.88,28.64,4.71,57.35,8.29,86.42,4.49C869.39,429.67,878.59,427.58,886.4,422.14Zm-412.75-51-.44,1.94c3.66,2.4,7.23,4.95,11,7.17,22.16,13.09,45,16.52,69,4.93,6.28-3,12.72-5.77,19-8.8,23.36-11.28,46.58-22.84,70.06-33.87,19.31-9.08,38.89-9.17,59.14-1.9,39.39,14.14,80.08,22.33,122,23.58,15.19.46,30.34-.19,44.87-5.34,3.38-1.19,6.51-3.09,9.76-4.66-.19-.54-.37-1.09-.55-1.63-11,4.89-22.53,4-34,3.55-34-1.22-67.07-5.92-98.5-20.46-17.42-8.05-35.91-14-54.33-19.58-24.13-7.28-46.3-3.53-66.41,13.18-35.49,29.5-77.78,40.24-122.95,41.84C492.14,371.39,482.89,371.11,473.65,371.11Zm6.74,164.26c-.75-.49-.52-.22-.27-.2a20.69,20.69,0,0,0,2.49,0c13.77-.67,26.61-3.63,39.12-10.3a111,111,0,0,0,32.55-25.83,210.42,210.42,0,0,1,23.37-23.17c49.26-41.57,117.23-48.26,173.8-17.37,17.81,9.73,35.3,20.07,53.27,29.52,15.83,8.33,44.62,7.92,59.26.63-10.16-2-21.49-3.68-32.58-6.41-15.77-3.87-29.06-13-42.57-21.55-21.55-13.61-43.28-26.84-67.13-36.21-39.11-15.37-76.13-11.09-110.75,12.25-21.88,14.75-42,31.65-58.87,52.21-10.93,13.31-23.05,25.71-38.75,33.34C502.54,527.56,491,531.23,480.39,535.37ZM478,566.51a20.35,20.35,0,0,0,2.44.71,18.87,18.87,0,0,0,2,0,91.87,91.87,0,0,0,39.58-10.47,104.26,104.26,0,0,0,33-26.76A163.56,163.56,0,0,1,567,517.21c51-50.43,126-60.18,188.23-24.59,15.31,8.76,30.92,17,46.1,26,21.16,12.53,42.51,6.84,64,1.62-17.84-.91-35.13-4.37-51-12.57-11.07-5.71-21.53-12.61-32.16-19.16-19.42-12-39.05-23.51-60.37-31.95-35.23-14-69.56-12.17-102.26,6.9a255.6,255.6,0,0,0-60.15,49.13c-9.19,10.09-18.27,20.37-28.33,29.54C516.51,555.41,498.75,562.79,478,566.51ZM606.56,209.88c4.68,10,10.11,17.75,20.59,21.28a108.68,108.68,0,0,1,22.54,10.09c8,5,15.19,11.35,22.45,17.45,2.62,2.21,4.5,2.58,7.36.69,5.42-3.57,11.16-6.65,16.56-10.24C719,234,740.26,217,756.43,194.42c1.29-1.8,2.44-3.71,3.66-5.57-9.52,5.31-18.19,11.38-27.12,17-18,11.42-36.07,22.7-56.51,29.45-13.36,4.4-25.23,2.19-35.54-7.6-3.38-3.21-6.78-6.42-10.38-9.37A35,35,0,0,0,606.56,209.88Zm-104.69,465c.61-.1,1.41-.18,2.19-.34,20.93-4.21,39.79-.11,56.74,13.26,9.65,7.62,19.8,14.63,30,21.5,5.11,3.45,10.84,6,16.3,8.92-4.44-12.1-10.85-22-22-28.32a72.57,72.57,0,0,1-15.16-11.21,152.48,152.48,0,0,0-30.44-23.25c-10-5.86-20.54-6.85-31.08-5.09C506.23,658.56,504.1,666.53,501.87,674.9Zm81.2,46.31a17.51,17.51,0,0,0-1.18-2.2c-25.54-29.55-50.59-35.92-83.91-26.78a6.63,6.63,0,0,0-3.68,3c-2.78,5.36-5.25,10.89-7.84,16.36,9.6-6.33,16.2-8.66,27.59-8.72A132.62,132.62,0,0,1,583.07,721.21Zm53.8-553.31c8.91,5.75,17.78,11.56,26.74,17.23,6.61,4.17,14,5.26,21,2.1a96.22,96.22,0,0,0,19.56-11.57c5.57-4.33,8.66-10.68,8.36-18.9C688.3,169.78,663.06,171.56,636.87,167.9Zm-11,18.8c1.71,1.36,2.47,2,3.26,2.6,12.56,9.56,24.93,19.39,37.83,28.48,2.85,2,7.69,2.33,11.39,1.81,15.71-2.24,39.28-21.31,46.23-37.8-9.47,5.56-18.22,9.77-25.89,15.44-9.93,7.33-20.23,9-31.52,5C653.73,197.44,640.47,192.22,625.84,186.7ZM800.9,688.6c12.22-2.42,24.29-5.57,36.57-7.05,14.09-1.68,28.41-2.14,40.55,8.47a164.71,164.71,0,0,0-7.85-17.39,5.12,5.12,0,0,0-3-2.36c-18.37-4.36-36.45-6.75-54.45,2.59C805.48,676.61,801.8,681.45,800.9,688.6Zm72.72-60.44c-14.51-.91-27.78-1.8-41.06-2.5a4.65,4.65,0,0,0-3.5,1.84c-2.5,3.86-4.67,7.94-7,11.94,8.53,2.58,16.87,4.46,24.68,7.64s14.94,7.59,23.5,12C867.72,647.73,868.06,638.14,873.62,628.16ZM695.56,794.63,684,784c-26.15,15.54-24,34.44-3,52.95C687.2,823.15,684.51,806.28,695.56,794.63Zm51.24-42.19c-3,8.51-6,16.84-9.41,26.57,5.86,3.54,11.93,8.44,18.85,11.12,11.92,4.6,20.19-2.17,19.33-15C762.75,771.69,754.75,761.82,746.8,752.44Zm7.8,71.33c-13.28-7-26.48-13.67-24.64-31L708,798.21c-1.29,7.07.22,13.84,6.21,19.23C726.24,828.21,740.14,827.27,754.6,823.77ZM682.7,774.7c-.65-3.71-1.21-7-1.82-10.19a8.47,8.47,0,0,0-.83-3.26c-5.55-8-17.87-9.07-24.47-1.93a40.87,40.87,0,0,0-11.25,29,49.35,49.35,0,0,0,.72,5C652.31,773.82,668.25,775.64,682.7,774.7ZM551.81,729.48c-2.56-1.44-4.34-2.59-6.23-3.48-19.31-9.1-38.22-10-56.74,2.34-6.7,4.48-9.11,10.2-6.86,17.86C501.6,727.4,526,727.53,551.81,729.48Zm331.56-4.85a95,95,0,0,0-.64-10.83,8.12,8.12,0,0,0-2.87-4.89c-20.6-14.51-39.28-16.17-64.45-2.78-.54.29-.9.92-1.9,2a91.74,91.74,0,0,1,39.92.87C864.48,711.53,875.48,714.44,883.37,724.63ZM801.2,678.87l-18.61,17.91,1.2,1.24C790.89,693.43,801.7,692.69,801.2,678.87Z" transform="translate(-408.3 -120.61)"/><path class="cls-1" d="M766.6,630.77c-5.63,4.79-12.76,2.64-19.12,4.06-8.27,1.85-16.69,3-24.94,4.95-8.78,2-15.5,7.23-20.84,14.52a134,134,0,0,0-21.92,46.16c-.37,1.43-.85,2.83-1.47,4.87-8.69-5.52-14.38-13.5-20.79-21.43-4.56,6.7-2.44,12.54.45,19.09-1.63-1-3.61-1.69-4.84-3a121.54,121.54,0,0,1-8.73-10.88c-9.89-14-21-26.75-36-35.49-17.41-10.14-36.7-12.32-56.33-12.85-5.48-.15-11,0-16.48,0,0-.11-.08-.57,0-.6,23.24-9.16,47-13.56,71.73-7,10.81,2.85,20.15,8.57,29.13,15,1.9,1.36,3.7,3,5.82,3.84,2.29.88,5.7,2.06,7.15,1,1.61-1.13,2.39-4.73,2.08-7.07-1.49-11.38-7.91-19.71-17.74-25.13-13.26-7.32-27.48-10.8-43.87-8.77,5.54-7.13,11.73-11.5,19.86-12.9,4.59-.8,9.26-1.17,13.83-2,8.49-1.6,13.95-7.26,16.75-14.89.92-2.52-.83-6.77-2.6-9.39-5.72-8.52-7.49-9-15.22-2.57-9.92,8.3-19.89,16.77-28.49,26.38-15.2,17-34.67,24.62-56.26,28.42-3.26.58-6.76,0-9.93.85-6.79,1.75-13.43,4-20.49,6.22-.89-7.95-.2-16.71,6-24.3,1.46-1.8,3.2-3.38,4.82-5.06,4.21-4.35,8.64-5.55,14.79-3.28,11.48,4.24,23.51,7.51,35.44,2a119.5,119.5,0,0,0,19.52-11.87c9.69-7,18.91-14.74,28.4-22.08,5.74-4.44,12-7.8,19.42-8.42,4.94-.41,7.57-2.83,8-8.2.79-10.06.23-19.66-6.14-28-2.74-3.62-5.69-5-10.67-3.16-28.33,10.44-52.48,27-71.48,50.26-13.8,16.93-31.13,27.81-51.41,34.4-6.39,2.08-13.41,2.2-20.14,3.22l-.32-1.64a13.78,13.78,0,0,1,2-.78c24.33-5.44,44.31-18.29,60.2-37a324.72,324.72,0,0,1,65.59-59.61,118.14,118.14,0,0,1,65.66-21c19.16-.3,37.44,4.72,54.31,13.32,20.13,10.25,40,21.15,59.1,33.25,23.07,14.65,47,25.65,75.62,25.66-14.83,7.59-44.2,8.92-58.08,1.91q-24.49-12.37-48.12-26.41c-22.75-13.52-46.91-22-73.46-23.22-7.59-.34-14,2.75-19.29,7.93-5.45,5.37-5.94,12-3.39,19a23.64,23.64,0,0,0,12.39,13.78c6,2.76,11.45,6.55,18.06,8.29,13.06,3.45,23.63,11.49,33.06,20.77,8.76,8.62,18.86,11.33,30.61,9.19,3.93-.72,7.82-1.61,11.71-2.52,19.43-4.56,38.8-9.36,58.28-13.67,17.06-3.77,33.62-.3,49.18,3.76-.71,11.8-1.37,22.81-2,34.09-.67-.28-2-.75-3.2-1.36-8.37-4.09-16.54-8.67-25.14-12.19a133.93,133.93,0,0,0-22.33-6.64c-2.84-.61-6.19,1.1-9.31,1.75l.18-.14a9.93,9.93,0,0,0-2,0c-13.89,3.14-27.65,7.11-41.69,9.27-20,3.06-39-.38-53.29-15.83-9.67-10.44-21.39-15.89-34.57-19.5-10.17-2.79-10.92-2.6-15.73,6.83a25,25,0,0,0-1.4,3.18,17.9,17.9,0,0,0,16.43,23.79c5.32.11,10.65.18,16,.6,6.76.53,12.71,2.93,17.06,7.93-8.46,1.35-17,2-25,4.16-15.46,4.24-15.63,17.33-11.24,29.88.82,2.34,2.59,3.9,5.47,2.08,15.67-9.9,33.3-14,51.25-16.92,10.56-1.7,21.25-2.57,32.11-3.84-.66,2.23-1.06,3.59-1.47,5Z" transform="translate(-408.3 -120.61)"/><path class="cls-1" d="M500.73,351.36c7-2.88,13.76-5.55,20.41-8.35,25-10.55,50-21.28,72.85-36a97.87,97.87,0,0,0,16.89-13.89c5.13-5.26,4.41-9.1-1-13.93-9.41-8.37-17.89-17.57-22.93-29.26a52.73,52.73,0,0,1-3.66-14.85c-.5-4.44,1.48-8.42,5.91-11.21,2.12,3.2,4.06,6.42,6.28,9.43,7.66,10.4,17.55,17,30.73,18.36,15.25,1.54,26.22,10.17,34.36,22.41,2.86,4.3,5.84,5.12,9.88,3.49,9.84-4,20-7.51,29.22-12.58,19.39-10.61,36.23-24.83,52.57-39.6,1.34-1.21,2.7-2.41,5.11-4.57-.55,2.55-.7,3.89-1.13,5.13-4.61,13.17-11.67,25-20.12,36-1.59,2.08-3.56,4.31-5.86,5.34-11,4.92-13.84,15-17,25.4,20.92,3.5,40.48,11,60.09,18.14s38.83,14.63,56.74,25.24l0,1.71c-3.22.71-6.43,1.94-9.68,2-15.61.45-30.32-4.11-44.7-9.32-22-8-43.74-16.93-65.72-25.07-13.2-4.89-27-8.46-41.06-6.29-9.9,1.54-19.69,4.89-29,8.63-25,10-49.63,21-74.73,30.81C546.2,345.94,526.52,351,506,352.11c-1.33.07-2.66.09-4,.07C501.79,352.18,501.54,351.88,500.73,351.36Z" transform="translate(-408.3 -120.61)"/><path class="cls-1" d="M470.61,407.94c19.54-1.32,37.67-2.07,55.69-3.87,35.31-3.55,67.75-15.08,96.34-36.56,2.66-2,5.54-3.72,8.12-5.82,16.78-13.68,35.82-16.14,56.52-12.21a240.47,240.47,0,0,1,58.13,19.22c34,16.13,70,21.6,107.13,22.7,11.49.34,22.85.74,33.85-3.86l.57,2.08c-5.47,2.09-10.8,4.75-16.43,6.18-19.31,4.88-39,4.26-58.59,2.62A431.88,431.88,0,0,1,703.39,375.1c-19.71-7-39-6.1-57.84,2.39-22.13,10-44,20.58-66,30.84q-14.91,6.94-30,13.59c-20.37,9-40.3,6.61-59.71-3C483.54,415.82,477.57,411.94,470.61,407.94Z" transform="translate(-408.3 -120.61)"/><path class="cls-1" d="M886.4,422.14c-7.81,5.44-17,7.53-26.4,8.75-29.07,3.8-57.78.22-86.42-4.49-24.71-4-48.7-10.87-72.36-18.88-17.33-5.88-34.55-5.88-51.18,1.39-23.76,10.39-47.11,21.69-70.66,32.55-10,4.59-20,9.13-30,13.54-20,8.78-39.65,6.56-58.8-2.72-6.6-3.2-12.8-7.23-19.19-10.88l.57-1.68c9.92,0,19.85.29,29.76-.06,25.65-.89,51.18-2.76,75.69-11.43,15.29-5.4,28.4-14.51,41.51-23.65a149.54,149.54,0,0,1,45.45-21.29c19.69-5.53,38.7-2.18,57.09,5.27,12.79,5.17,25.42,10.85,37.68,17.17,18.7,9.64,38.57,14.47,59.3,16.21,13.6,1.15,27.23,2.39,40.86,2.58C868.31,424.65,877.35,423,886.4,422.14Z" transform="translate(-408.3 -120.61)"/><path class="cls-1" d="M473.65,371.11c9.24,0,18.49.28,27.71-.05,45.17-1.6,87.46-12.34,122.95-41.84,20.11-16.71,42.28-20.46,66.41-13.18,18.42,5.55,36.91,11.53,54.33,19.58,31.43,14.54,64.52,19.24,98.5,20.46,11.43.41,23,1.34,34-3.55.18.54.36,1.09.55,1.63-3.25,1.57-6.38,3.47-9.76,4.66-14.53,5.15-29.68,5.8-44.87,5.34-41.93-1.25-82.62-9.44-122-23.58-20.25-7.27-39.83-7.18-59.14,1.9-23.48,11-46.7,22.59-70.06,33.87-6.29,3-12.73,5.76-19,8.8-24,11.59-46.84,8.16-69-4.93-3.77-2.22-7.34-4.77-11-7.17Z" transform="translate(-408.3 -120.61)"/><path class="cls-1" d="M480.39,535.37c10.6-4.14,22.15-7.81,32.94-13.06,15.7-7.63,27.82-20,38.75-33.34,16.88-20.56,37-37.46,58.87-52.21,34.62-23.34,71.64-27.62,110.75-12.25,23.85,9.37,45.58,22.6,67.13,36.21,13.51,8.54,26.8,17.68,42.57,21.55,11.09,2.73,22.42,4.45,32.58,6.41-14.64,7.29-43.43,7.7-59.26-.63-18-9.45-35.46-19.79-53.27-29.52-56.57-30.89-124.54-24.2-173.8,17.37a210.42,210.42,0,0,0-23.37,23.17,111,111,0,0,1-32.55,25.83c-12.51,6.67-25.35,9.63-39.12,10.3a20.69,20.69,0,0,1-2.49,0C479.87,535.15,479.64,534.88,480.39,535.37Z" transform="translate(-408.3 -120.61)"/><path class="cls-1" d="M478,566.51c20.71-3.72,38.47-11.1,53.05-24.38,10.06-9.17,19.14-19.45,28.33-29.54a255.6,255.6,0,0,1,60.15-49.13c32.7-19.07,67-20.86,102.26-6.9,21.32,8.44,40.95,20,60.37,31.95,10.63,6.55,21.09,13.45,32.16,19.16,15.87,8.2,33.16,11.66,51,12.57-21.49,5.22-42.84,10.91-64-1.62-15.18-9-30.79-17.24-46.1-26C693,457,618,466.78,567,517.21A163.56,163.56,0,0,0,555.09,530a104.26,104.26,0,0,1-33,26.76,91.87,91.87,0,0,1-39.58,10.47,18.87,18.87,0,0,1-2,0A20.35,20.35,0,0,1,478,566.51Z" transform="translate(-408.3 -120.61)"/><path class="cls-1" d="M766.6,630.77l.37-.2,48.14-36.63-.18.14a22.56,22.56,0,0,0,3-.18c7.21-1.32,11.2,1.6,12.18,9a2.12,2.12,0,0,1,0,.5c-1.1,13.17-2,26-11.16,37.21-8.36,10.25-14.72,22.11-22.42,32.94-6.24,8.78-12.85,17.36-19.9,25.51-3.48,4-8,8.14-14.27,6a17.37,17.37,0,0,1-12.17-15.61,70.23,70.23,0,0,1,.81-18.26c2.24-12.3,6.06-24.14,13.25-34.64C765.41,634.83,765.84,632.69,766.6,630.77Z" transform="translate(-408.3 -120.61)"/><path class="cls-1" d="M606.56,209.88a35,35,0,0,1,24,8.49c3.6,2.95,7,6.16,10.38,9.37,10.31,9.79,22.18,12,35.54,7.6,20.44-6.75,38.52-18,56.51-29.45,8.93-5.66,17.6-11.73,27.12-17-1.22,1.86-2.37,3.77-3.66,5.57C740.26,217,719,234,696.06,249.15c-5.4,3.59-11.14,6.67-16.56,10.24-2.86,1.89-4.74,1.52-7.36-.69-7.26-6.1-14.45-12.46-22.45-17.45a108.68,108.68,0,0,0-22.54-10.09C616.67,227.63,611.24,219.92,606.56,209.88Z" transform="translate(-408.3 -120.61)"/><path class="cls-1" d="M501.87,674.9c2.23-8.37,4.36-16.34,6.55-24.53,10.54-1.76,21.08-.77,31.08,5.09a152.48,152.48,0,0,1,30.44,23.25,72.57,72.57,0,0,0,15.16,11.21c11.16,6.33,17.57,16.22,22,28.32-5.46-2.94-11.19-5.47-16.3-8.92-10.21-6.87-20.36-13.88-30-21.5-16.95-13.37-35.81-17.47-56.74-13.26C503.28,674.72,502.48,674.8,501.87,674.9Z" transform="translate(-408.3 -120.61)"/><path class="cls-1" d="M583.07,721.21a132.62,132.62,0,0,0-69-18.31c-11.39.06-18,2.39-27.59,8.72,2.59-5.47,5.06-11,7.84-16.36a6.63,6.63,0,0,1,3.68-3c33.32-9.14,58.37-2.77,83.91,26.78A17.51,17.51,0,0,1,583.07,721.21Z" transform="translate(-408.3 -120.61)"/><path class="cls-1" d="M636.87,167.9c26.19,3.66,51.43,1.88,75.66-11.14.3,8.22-2.79,14.57-8.36,18.9a96.22,96.22,0,0,1-19.56,11.57c-7,3.16-14.39,2.07-21-2.1C654.65,179.46,645.78,173.65,636.87,167.9Z" transform="translate(-408.3 -120.61)"/><path class="cls-1" d="M625.84,186.7c14.63,5.52,27.89,10.74,41.3,15.53,11.29,4,21.59,2.33,31.52-5,7.67-5.67,16.42-9.88,25.89-15.44-6.95,16.49-30.52,35.56-46.23,37.8-3.7.52-8.54.2-11.39-1.81-12.9-9.09-25.27-18.92-37.83-28.48C628.31,188.7,627.55,188.06,625.84,186.7Z" transform="translate(-408.3 -120.61)"/><path class="cls-1" d="M800.9,688.6c.9-7.15,4.58-12,11.82-15.74,18-9.34,36.08-7,54.45-2.59a5.12,5.12,0,0,1,3,2.36A164.71,164.71,0,0,1,878,690c-12.14-10.61-26.46-10.15-40.55-8.47C825.19,683,813.12,686.18,800.9,688.6Z" transform="translate(-408.3 -120.61)"/><path class="cls-1" d="M873.62,628.16c-5.56,10-5.9,19.57-3.35,31-8.56-4.46-15.77-8.91-23.5-12s-16.15-5.06-24.68-7.64c2.3-4,4.47-8.08,7-11.94a4.65,4.65,0,0,1,3.5-1.84C845.84,626.36,859.11,627.25,873.62,628.16Z" transform="translate(-408.3 -120.61)"/><path class="cls-1" d="M695.56,794.63c-11,11.65-8.36,28.52-14.59,42.29-21-18.51-23.15-37.41,3-52.95Z" transform="translate(-408.3 -120.61)"/><path class="cls-1" d="M746.8,752.44c8,9.38,16,19.25,28.77,22.74.86,12.78-7.41,19.55-19.33,15-6.92-2.68-13-7.58-18.85-11.12C740.83,769.28,743.78,761,746.8,752.44Z" transform="translate(-408.3 -120.61)"/><path class="cls-1" d="M754.6,823.77c-14.46,3.5-28.36,4.44-40.35-6.33-6-5.39-7.5-12.16-6.21-19.23L730,792.77C728.12,810.1,741.32,816.74,754.6,823.77Z" transform="translate(-408.3 -120.61)"/><path class="cls-1" d="M682.7,774.7c-14.45.94-30.39-.88-37.65,18.71a49.35,49.35,0,0,1-.72-5,40.87,40.87,0,0,1,11.25-29c6.6-7.14,18.92-6,24.47,1.93a8.47,8.47,0,0,1,.83,3.26C681.49,767.74,682.05,771,682.7,774.7Z" transform="translate(-408.3 -120.61)"/><path class="cls-1" d="M551.81,729.48c-25.83-2-50.21-2.08-69.83,16.72-2.25-7.66.16-13.38,6.86-17.86C507.36,716,526.27,716.9,545.58,726,547.47,726.89,549.25,728,551.81,729.48Z" transform="translate(-408.3 -120.61)"/><path class="cls-1" d="M883.37,724.63c-7.89-10.19-18.89-13.1-29.94-15.65a91.74,91.74,0,0,0-39.92-.87c1-1.06,1.36-1.69,1.9-2,25.17-13.39,43.85-11.73,64.45,2.78a8.12,8.12,0,0,1,2.87,4.89A95,95,0,0,1,883.37,724.63Z" transform="translate(-408.3 -120.61)"/><path class="cls-1" d="M801.2,678.87c.5,13.82-10.31,14.56-17.41,19.15l-1.2-1.24Z" transform="translate(-408.3 -120.61)"/><path class="cls-1" d="M815.11,593.94,767,630.57c.41-1.36.81-2.72,1.47-5-10.86,1.27-21.55,2.14-32.11,3.84-18,2.89-35.58,7-51.25,16.92-2.88,1.82-4.65.26-5.47-2.08-4.39-12.55-4.22-25.64,11.24-29.88,8.07-2.21,16.59-2.81,25-4.16-4.35-5-10.3-7.4-17.06-7.93-5.3-.42-10.63-.49-16-.6a17.9,17.9,0,0,1-16.43-23.79,25,25,0,0,1,1.4-3.18c4.81-9.43,5.56-9.62,15.73-6.83,13.18,3.61,24.9,9.06,34.57,19.5,14.33,15.45,33.33,18.89,53.29,15.83,14-2.16,27.8-6.13,41.69-9.27A9.93,9.93,0,0,1,815.11,593.94Z" transform="translate(-408.3 -120.61)"/><path class="cls-2" d="M552,244c44-32,30-52,61-87s40-38,70-35,59,24,67,35,6.5,25.5,25.5,31.5,102,16,151,22-33,26-40,70-4,50,9,154-27,280-9,312,23,44-27,47-77,6-77,6-25,45-87,45-59-120-59-120c-50,4-135,30-135,30s-35,33-43,6,19-35,25-72,1-76-26-177,49-175,43-199-89-58-85-76-31-25,28-12,64,17,82,17S552,244,552,244Z" transform="translate(-408.3 -120.61)"/><path class="cls-2" d="M671.5,718.5c11,73,26,77,42,73s40-40,36-70-14-76,17-100,43-37,59-34,16,26,8,43-48,52-51,80,1,28,0,54,0,35,0,35" transform="translate(-408.3 -120.61)"/></svg>